<svg xmlns="http://www.w3.org/2000/svg" width="64" height="64" viewBox="0 0 64 64">
  <rect width="64" height="64" rx="16" fill="oklch(0.82 0.22 150 / 0.15)" />
  
  <defs>
    <filter id="glow" x="-20%" y="-20%" width="140%" height="140%">
      <feGaussianBlur stdDeviation="3" result="blur" />
      <feComposite in="SourceGraphic" in2="blur" operator="over" />
    </filter>
  </defs>

  <g fill="none" stroke="oklch(0.82 0.22 150)" stroke-width="4" stroke-linecap="round" stroke-linejoin="round" transform="translate(16, 16)">
    <path d="M4 7V5a1 1 0 0 1 1-1h2" />
    <path d="M20 7V5a1 1 0 0 0-1-1h-2" />
    <path d="M4 17v2a1 1 0 0 0 1 1h2" />
    <path d="M20 17v2a1 1 0 0 1-1 1h-2" />
    <path d="M8 12h8" />
    <path d="M12 8v8" />
  </g>
</svg>
